<?xml version="1.0" encoding="utf-8"?>
<!-- Generator: Adobe Illustrator 17.0.0, SVG Export Plug-In . SVG Version: 6.00 Build 0)  -->
<!DOCTYPE svg PUBLIC "-//W3C//DTD SVG 1.1//EN" "http://www.w3.org/Graphics/SVG/1.1/DTD/svg11.dtd">
<svg version="1.1" id="Layer_1" xmlns="http://www.w3.org/2000/svg" xmlns:xlink="http://www.w3.org/1999/xlink" x="0px" y="0px"
	 width="489.103px" height="229.205px" viewBox="0 0 489.103 229.205" enable-background="new 0 0 489.103 229.205"
	 xml:space="preserve">
<path fill="none" stroke="#00CFFF" stroke-width="2" stroke-linecap="round" stroke-linejoin="round" stroke-miterlimit="10" d="
	M166.308,143.255c0,0,34.591,12.856,34.591-64.281s-5.322-77.289-15.3-76.066c-10.041,1.231-10.643,67.496-9.978,75.531
	c0.665,8.035-2.661,66.96,33.926,66.96s37.917-69.638-5.322-60.532"/>
<path fill="none" stroke="#00CFFF" stroke-width="2" stroke-linecap="round" stroke-linejoin="round" stroke-miterlimit="10" d="
	M352.051,84.925c0,0,34.591-12.856,34.591,64.281s-5.322,77.289-15.3,76.066c-10.041-1.231-10.643-67.496-9.978-75.531
	c0.665-8.035-2.661-66.96,33.926-66.96s37.917,69.638-5.322,60.532"/>
<ellipse fill="none" stroke="#00CFFF" stroke-width="2" stroke-linecap="round" stroke-linejoin="round" stroke-miterlimit="10" cx="270.795" cy="112.967" rx="27.564" ry="32.498"/>
<path fill="none" stroke="#00CFFF" stroke-width="2" stroke-linecap="round" stroke-linejoin="round" stroke-miterlimit="10" d="
	M305.051,86.769c0,0-7.253,55.824,23.077,58.051c31.769,2.333,23.821-59.974,23.821-59.974"/>
<path fill="none" stroke="#00CFFF" stroke-width="2" stroke-linecap="round" stroke-linejoin="round" stroke-miterlimit="10" d="
	M434.372,116.295c0,0,51.086-12.846,33.141-31.277c-15.729-16.156-46.136,7.242-35.616,40.719s56.927,16.445,50.739-17.032"/>
<text transform="matrix(0.9686 -0.2487 0.2487 0.9686 21.7889 121.3785)" fill="#6B1D99" font-family="'Mistral'" font-size="90.3709">YOUR</text>
</svg>
